<mxfile host="app.diagrams.net" agent="Mozilla/5.0 (Windows NT 10.0; Win64; x64) AppleWebKit/537.36 (KHTML, like Gecko) Chrome/134.0.0.0 Safari/537.36" version="26.1.0">
  <diagram name="Page-1" id="eAiJOqDOV34h754ubB6I">
    <mxGraphModel dx="2856" dy="908" grid="1" gridSize="10" guides="1" tooltips="1" connect="1" arrows="1" fold="1" page="1" pageScale="1" pageWidth="1169" pageHeight="827" math="0" shadow="0">
      <root>
        <mxCell id="0" />
        <mxCell id="1" parent="0" />
        <mxCell id="mXM1S3KKqSCKH9ftRv-s-1" value="NGHE_NGHIEP" style="rounded=0;whiteSpace=wrap;html=1;" vertex="1" parent="1">
          <mxGeometry x="-360" y="640" width="120" height="40" as="geometry" />
        </mxCell>
        <mxCell id="mXM1S3KKqSCKH9ftRv-s-9" value="&lt;u&gt;MaNghe&lt;/u&gt;" style="ellipse;whiteSpace=wrap;html=1;" vertex="1" parent="1">
          <mxGeometry x="-480" y="580" width="80" height="40" as="geometry" />
        </mxCell>
        <mxCell id="mXM1S3KKqSCKH9ftRv-s-11" value="DIA_CHI" style="rounded=0;whiteSpace=wrap;html=1;" vertex="1" parent="1">
          <mxGeometry x="360" y="640" width="120" height="40" as="geometry" />
        </mxCell>
        <mxCell id="mXM1S3KKqSCKH9ftRv-s-12" value="&lt;u&gt;MaDiaChi&lt;/u&gt;" style="ellipse;whiteSpace=wrap;html=1;" vertex="1" parent="1">
          <mxGeometry x="520" y="480" width="80" height="40" as="geometry" />
        </mxCell>
        <mxCell id="mXM1S3KKqSCKH9ftRv-s-14" value="Tinh" style="ellipse;whiteSpace=wrap;html=1;" vertex="1" parent="1">
          <mxGeometry x="520" y="800" width="80" height="40" as="geometry" />
        </mxCell>
        <mxCell id="mXM1S3KKqSCKH9ftRv-s-15" value="Quan" style="ellipse;whiteSpace=wrap;html=1;" vertex="1" parent="1">
          <mxGeometry x="540" y="740" width="80" height="40" as="geometry" />
        </mxCell>
        <mxCell id="mXM1S3KKqSCKH9ftRv-s-16" value="SoNha" style="ellipse;whiteSpace=wrap;html=1;" vertex="1" parent="1">
          <mxGeometry x="540" y="540" width="80" height="40" as="geometry" />
        </mxCell>
        <mxCell id="mXM1S3KKqSCKH9ftRv-s-17" value="Phuong" style="ellipse;whiteSpace=wrap;html=1;" vertex="1" parent="1">
          <mxGeometry x="560" y="680" width="80" height="40" as="geometry" />
        </mxCell>
        <mxCell id="mXM1S3KKqSCKH9ftRv-s-18" value="Duong" style="ellipse;whiteSpace=wrap;html=1;" vertex="1" parent="1">
          <mxGeometry x="560" y="600" width="80" height="40" as="geometry" />
        </mxCell>
        <mxCell id="mXM1S3KKqSCKH9ftRv-s-29" value="TenNghe" style="ellipse;whiteSpace=wrap;html=1;" vertex="1" parent="1">
          <mxGeometry x="-480" y="640" width="80" height="40" as="geometry" />
        </mxCell>
        <mxCell id="mXM1S3KKqSCKH9ftRv-s-30" value="MoTa" style="ellipse;whiteSpace=wrap;html=1;" vertex="1" parent="1">
          <mxGeometry x="-480" y="700" width="80" height="40" as="geometry" />
        </mxCell>
        <mxCell id="mXM1S3KKqSCKH9ftRv-s-31" value="HO_GIA_DINH" style="rounded=0;whiteSpace=wrap;html=1;" vertex="1" parent="1">
          <mxGeometry y="840" width="120" height="40" as="geometry" />
        </mxCell>
        <mxCell id="mXM1S3KKqSCKH9ftRv-s-32" value="&lt;u&gt;MaHo&lt;/u&gt;" style="ellipse;whiteSpace=wrap;html=1;" vertex="1" parent="1">
          <mxGeometry x="20" y="920" width="80" height="40" as="geometry" />
        </mxCell>
        <mxCell id="mXM1S3KKqSCKH9ftRv-s-55" value="" style="endArrow=none;html=1;rounded=0;" edge="1" parent="1" source="mXM1S3KKqSCKH9ftRv-s-11" target="mXM1S3KKqSCKH9ftRv-s-12">
          <mxGeometry width="50" height="50" relative="1" as="geometry">
            <mxPoint x="350" y="440" as="sourcePoint" />
            <mxPoint x="497" y="391" as="targetPoint" />
          </mxGeometry>
        </mxCell>
        <mxCell id="mXM1S3KKqSCKH9ftRv-s-56" value="" style="endArrow=none;html=1;rounded=0;" edge="1" parent="1" source="mXM1S3KKqSCKH9ftRv-s-11" target="mXM1S3KKqSCKH9ftRv-s-16">
          <mxGeometry width="50" height="50" relative="1" as="geometry">
            <mxPoint x="452" y="640" as="sourcePoint" />
            <mxPoint x="551" y="548" as="targetPoint" />
          </mxGeometry>
        </mxCell>
        <mxCell id="mXM1S3KKqSCKH9ftRv-s-57" value="" style="endArrow=none;html=1;rounded=0;" edge="1" parent="1" source="mXM1S3KKqSCKH9ftRv-s-11" target="mXM1S3KKqSCKH9ftRv-s-18">
          <mxGeometry width="50" height="50" relative="1" as="geometry">
            <mxPoint x="455" y="680" as="sourcePoint" />
            <mxPoint x="549" y="753" as="targetPoint" />
          </mxGeometry>
        </mxCell>
        <mxCell id="mXM1S3KKqSCKH9ftRv-s-58" value="" style="endArrow=none;html=1;rounded=0;" edge="1" parent="1" source="mXM1S3KKqSCKH9ftRv-s-17" target="mXM1S3KKqSCKH9ftRv-s-11">
          <mxGeometry width="50" height="50" relative="1" as="geometry">
            <mxPoint x="432" y="680" as="sourcePoint" />
            <mxPoint x="438" y="730" as="targetPoint" />
          </mxGeometry>
        </mxCell>
        <mxCell id="mXM1S3KKqSCKH9ftRv-s-59" value="" style="endArrow=none;html=1;rounded=0;" edge="1" parent="1" source="mXM1S3KKqSCKH9ftRv-s-15" target="mXM1S3KKqSCKH9ftRv-s-11">
          <mxGeometry width="50" height="50" relative="1" as="geometry">
            <mxPoint x="520" y="667" as="sourcePoint" />
            <mxPoint x="490" y="665" as="targetPoint" />
          </mxGeometry>
        </mxCell>
        <mxCell id="mXM1S3KKqSCKH9ftRv-s-60" value="" style="endArrow=none;html=1;rounded=0;" edge="1" parent="1" source="mXM1S3KKqSCKH9ftRv-s-14" target="mXM1S3KKqSCKH9ftRv-s-11">
          <mxGeometry width="50" height="50" relative="1" as="geometry">
            <mxPoint x="522" y="706" as="sourcePoint" />
            <mxPoint x="470" y="680" as="targetPoint" />
          </mxGeometry>
        </mxCell>
        <mxCell id="mXM1S3KKqSCKH9ftRv-s-61" value="" style="endArrow=none;html=1;rounded=0;" edge="1" parent="1" source="mXM1S3KKqSCKH9ftRv-s-32" target="mXM1S3KKqSCKH9ftRv-s-31">
          <mxGeometry width="50" height="50" relative="1" as="geometry">
            <mxPoint x="713" y="852" as="sourcePoint" />
            <mxPoint x="609" y="740" as="targetPoint" />
          </mxGeometry>
        </mxCell>
        <mxCell id="mXM1S3KKqSCKH9ftRv-s-63" value="" style="endArrow=none;html=1;rounded=0;" edge="1" parent="1" source="mXM1S3KKqSCKH9ftRv-s-1" target="mXM1S3KKqSCKH9ftRv-s-9">
          <mxGeometry width="50" height="50" relative="1" as="geometry">
            <mxPoint x="14" y="901" as="sourcePoint" />
            <mxPoint x="45" y="860" as="targetPoint" />
          </mxGeometry>
        </mxCell>
        <mxCell id="mXM1S3KKqSCKH9ftRv-s-64" value="" style="endArrow=none;html=1;rounded=0;" edge="1" parent="1" source="mXM1S3KKqSCKH9ftRv-s-1" target="mXM1S3KKqSCKH9ftRv-s-29">
          <mxGeometry width="50" height="50" relative="1" as="geometry">
            <mxPoint x="-165" y="660" as="sourcePoint" />
            <mxPoint x="-86" y="615" as="targetPoint" />
          </mxGeometry>
        </mxCell>
        <mxCell id="mXM1S3KKqSCKH9ftRv-s-65" value="" style="endArrow=none;html=1;rounded=0;" edge="1" parent="1" source="mXM1S3KKqSCKH9ftRv-s-1" target="mXM1S3KKqSCKH9ftRv-s-30">
          <mxGeometry width="50" height="50" relative="1" as="geometry">
            <mxPoint x="-140" y="680" as="sourcePoint" />
            <mxPoint x="-100" y="680" as="targetPoint" />
          </mxGeometry>
        </mxCell>
        <mxCell id="mXM1S3KKqSCKH9ftRv-s-2" value="HoTen" style="ellipse;whiteSpace=wrap;html=1;" vertex="1" parent="1">
          <mxGeometry x="-180" y="350" width="80" height="40" as="geometry" />
        </mxCell>
        <mxCell id="mXM1S3KKqSCKH9ftRv-s-3" value="&lt;u&gt;CCCD&lt;/u&gt;" style="ellipse;whiteSpace=wrap;html=1;" vertex="1" parent="1">
          <mxGeometry x="-220" y="400" width="80" height="40" as="geometry" />
        </mxCell>
        <mxCell id="mXM1S3KKqSCKH9ftRv-s-4" value="NgaySinh" style="ellipse;whiteSpace=wrap;html=1;" vertex="1" parent="1">
          <mxGeometry x="-140" y="300" width="80" height="40" as="geometry" />
        </mxCell>
        <mxCell id="mXM1S3KKqSCKH9ftRv-s-5" value="GioiTinh" style="ellipse;whiteSpace=wrap;html=1;" vertex="1" parent="1">
          <mxGeometry x="-70" y="260" width="80" height="40" as="geometry" />
        </mxCell>
        <mxCell id="mXM1S3KKqSCKH9ftRv-s-6" value="QuocTich" style="ellipse;whiteSpace=wrap;html=1;" vertex="1" parent="1">
          <mxGeometry x="20" y="240" width="80" height="40" as="geometry" />
        </mxCell>
        <mxCell id="mXM1S3KKqSCKH9ftRv-s-7" value="HocVan" style="ellipse;whiteSpace=wrap;html=1;" vertex="1" parent="1">
          <mxGeometry x="220" y="350" width="80" height="40" as="geometry" />
        </mxCell>
        <mxCell id="mXM1S3KKqSCKH9ftRv-s-24" value="DanToc" style="ellipse;whiteSpace=wrap;html=1;" vertex="1" parent="1">
          <mxGeometry x="110" y="260" width="80" height="40" as="geometry" />
        </mxCell>
        <mxCell id="mXM1S3KKqSCKH9ftRv-s-27" value="TonGiao" style="ellipse;whiteSpace=wrap;html=1;" vertex="1" parent="1">
          <mxGeometry x="180" y="300" width="80" height="40" as="geometry" />
        </mxCell>
        <mxCell id="mXM1S3KKqSCKH9ftRv-s-28" value="CONG_DAN" style="rounded=0;whiteSpace=wrap;html=1;" vertex="1" parent="1">
          <mxGeometry y="480" width="120" height="40" as="geometry" />
        </mxCell>
        <mxCell id="mXM1S3KKqSCKH9ftRv-s-36" value="" style="endArrow=none;html=1;rounded=0;" edge="1" parent="1" source="mXM1S3KKqSCKH9ftRv-s-28" target="mXM1S3KKqSCKH9ftRv-s-27">
          <mxGeometry width="50" height="50" relative="1" as="geometry">
            <mxPoint x="-110" y="450" as="sourcePoint" />
            <mxPoint x="-60" y="400" as="targetPoint" />
          </mxGeometry>
        </mxCell>
        <mxCell id="mXM1S3KKqSCKH9ftRv-s-37" value="" style="endArrow=none;html=1;rounded=0;" edge="1" parent="1" source="mXM1S3KKqSCKH9ftRv-s-28" target="mXM1S3KKqSCKH9ftRv-s-7">
          <mxGeometry width="50" height="50" relative="1" as="geometry">
            <mxPoint x="70" y="490" as="sourcePoint" />
            <mxPoint x="-50" y="410" as="targetPoint" />
          </mxGeometry>
        </mxCell>
        <mxCell id="mXM1S3KKqSCKH9ftRv-s-38" value="" style="endArrow=none;html=1;rounded=0;" edge="1" parent="1" source="mXM1S3KKqSCKH9ftRv-s-28" target="mXM1S3KKqSCKH9ftRv-s-24">
          <mxGeometry width="50" height="50" relative="1" as="geometry">
            <mxPoint x="70" y="490" as="sourcePoint" />
            <mxPoint x="70" y="410" as="targetPoint" />
          </mxGeometry>
        </mxCell>
        <mxCell id="mXM1S3KKqSCKH9ftRv-s-39" value="" style="endArrow=none;html=1;rounded=0;" edge="1" parent="1" source="mXM1S3KKqSCKH9ftRv-s-28" target="mXM1S3KKqSCKH9ftRv-s-3">
          <mxGeometry width="50" height="50" relative="1" as="geometry">
            <mxPoint x="50" y="490" as="sourcePoint" />
            <mxPoint x="-32" y="408" as="targetPoint" />
          </mxGeometry>
        </mxCell>
        <mxCell id="mXM1S3KKqSCKH9ftRv-s-40" value="" style="endArrow=none;html=1;rounded=0;" edge="1" parent="1" source="mXM1S3KKqSCKH9ftRv-s-28" target="mXM1S3KKqSCKH9ftRv-s-2">
          <mxGeometry width="50" height="50" relative="1" as="geometry">
            <mxPoint x="10" y="490" as="sourcePoint" />
            <mxPoint x="-137" y="441" as="targetPoint" />
          </mxGeometry>
        </mxCell>
        <mxCell id="mXM1S3KKqSCKH9ftRv-s-42" value="" style="endArrow=none;html=1;rounded=0;" edge="1" parent="1" source="mXM1S3KKqSCKH9ftRv-s-28" target="mXM1S3KKqSCKH9ftRv-s-4">
          <mxGeometry width="50" height="50" relative="1" as="geometry">
            <mxPoint x="77" y="490" as="sourcePoint" />
            <mxPoint x="123" y="360" as="targetPoint" />
          </mxGeometry>
        </mxCell>
        <mxCell id="mXM1S3KKqSCKH9ftRv-s-43" value="" style="endArrow=none;html=1;rounded=0;" edge="1" parent="1" source="mXM1S3KKqSCKH9ftRv-s-28" target="mXM1S3KKqSCKH9ftRv-s-5">
          <mxGeometry width="50" height="50" relative="1" as="geometry">
            <mxPoint x="128" y="490" as="sourcePoint" />
            <mxPoint x="297" y="431" as="targetPoint" />
          </mxGeometry>
        </mxCell>
        <mxCell id="mXM1S3KKqSCKH9ftRv-s-44" value="" style="endArrow=none;html=1;rounded=0;" edge="1" parent="1" source="mXM1S3KKqSCKH9ftRv-s-28" target="mXM1S3KKqSCKH9ftRv-s-6">
          <mxGeometry width="50" height="50" relative="1" as="geometry">
            <mxPoint x="112" y="490" as="sourcePoint" />
            <mxPoint x="291" y="404" as="targetPoint" />
          </mxGeometry>
        </mxCell>
        <mxCell id="mXM1S3KKqSCKH9ftRv-s-45" value="Tuoi" style="ellipse;whiteSpace=wrap;html=1;dashed=1;" vertex="1" parent="1">
          <mxGeometry x="260" y="400" width="80" height="40" as="geometry" />
        </mxCell>
        <mxCell id="mXM1S3KKqSCKH9ftRv-s-47" value="" style="endArrow=none;html=1;rounded=0;" edge="1" parent="1" source="mXM1S3KKqSCKH9ftRv-s-28" target="mXM1S3KKqSCKH9ftRv-s-45">
          <mxGeometry width="50" height="50" relative="1" as="geometry">
            <mxPoint x="101" y="490" as="sourcePoint" />
            <mxPoint x="246" y="396" as="targetPoint" />
          </mxGeometry>
        </mxCell>
        <mxCell id="mXM1S3KKqSCKH9ftRv-s-49" value="Dem" style="ellipse;whiteSpace=wrap;html=1;" vertex="1" parent="1">
          <mxGeometry x="-320" y="260" width="80" height="40" as="geometry" />
        </mxCell>
        <mxCell id="mXM1S3KKqSCKH9ftRv-s-50" value="Ho" style="ellipse;whiteSpace=wrap;html=1;" vertex="1" parent="1">
          <mxGeometry x="-340" y="320" width="80" height="40" as="geometry" />
        </mxCell>
        <mxCell id="mXM1S3KKqSCKH9ftRv-s-51" value="ten" style="ellipse;whiteSpace=wrap;html=1;" vertex="1" parent="1">
          <mxGeometry x="-220" y="240" width="80" height="40" as="geometry" />
        </mxCell>
        <mxCell id="mXM1S3KKqSCKH9ftRv-s-52" value="" style="endArrow=none;html=1;rounded=0;" edge="1" parent="1" source="mXM1S3KKqSCKH9ftRv-s-2" target="mXM1S3KKqSCKH9ftRv-s-50">
          <mxGeometry width="50" height="50" relative="1" as="geometry">
            <mxPoint x="-90" y="410" as="sourcePoint" />
            <mxPoint x="-40" y="360" as="targetPoint" />
          </mxGeometry>
        </mxCell>
        <mxCell id="mXM1S3KKqSCKH9ftRv-s-53" value="" style="endArrow=none;html=1;rounded=0;" edge="1" parent="1" source="mXM1S3KKqSCKH9ftRv-s-2" target="mXM1S3KKqSCKH9ftRv-s-49">
          <mxGeometry width="50" height="50" relative="1" as="geometry">
            <mxPoint x="-167" y="373" as="sourcePoint" />
            <mxPoint x="-253" y="357" as="targetPoint" />
          </mxGeometry>
        </mxCell>
        <mxCell id="mXM1S3KKqSCKH9ftRv-s-54" value="" style="endArrow=none;html=1;rounded=0;" edge="1" parent="1" source="mXM1S3KKqSCKH9ftRv-s-2" target="mXM1S3KKqSCKH9ftRv-s-51">
          <mxGeometry width="50" height="50" relative="1" as="geometry">
            <mxPoint x="-157" y="365" as="sourcePoint" />
            <mxPoint x="-263" y="305" as="targetPoint" />
          </mxGeometry>
        </mxCell>
        <mxCell id="mXM1S3KKqSCKH9ftRv-s-67" value="ThuongTru" style="rhombus;whiteSpace=wrap;html=1;" vertex="1" parent="1">
          <mxGeometry x="240" y="540" width="120" height="40" as="geometry" />
        </mxCell>
        <mxCell id="mXM1S3KKqSCKH9ftRv-s-68" value="TamTru" style="rhombus;whiteSpace=wrap;html=1;" vertex="1" parent="1">
          <mxGeometry x="160" y="620" width="120" height="40" as="geometry" />
        </mxCell>
        <mxCell id="mXM1S3KKqSCKH9ftRv-s-69" value="" style="endArrow=none;html=1;rounded=0;exitX=0;exitY=0.5;exitDx=0;exitDy=0;" edge="1" parent="1" source="mXM1S3KKqSCKH9ftRv-s-67" target="mXM1S3KKqSCKH9ftRv-s-28">
          <mxGeometry width="50" height="50" relative="1" as="geometry">
            <mxPoint x="70" y="730" as="sourcePoint" />
            <mxPoint x="120" y="680" as="targetPoint" />
          </mxGeometry>
        </mxCell>
        <mxCell id="mXM1S3KKqSCKH9ftRv-s-70" value="" style="endArrow=none;html=1;rounded=0;entryX=1;entryY=0.5;entryDx=0;entryDy=0;" edge="1" parent="1" source="mXM1S3KKqSCKH9ftRv-s-11" target="mXM1S3KKqSCKH9ftRv-s-67">
          <mxGeometry width="50" height="50" relative="1" as="geometry">
            <mxPoint x="250" y="550" as="sourcePoint" />
            <mxPoint x="130" y="523" as="targetPoint" />
          </mxGeometry>
        </mxCell>
        <mxCell id="mXM1S3KKqSCKH9ftRv-s-71" value="" style="endArrow=none;html=1;rounded=0;exitX=0;exitY=0.5;exitDx=0;exitDy=0;" edge="1" parent="1" source="mXM1S3KKqSCKH9ftRv-s-68" target="mXM1S3KKqSCKH9ftRv-s-28">
          <mxGeometry width="50" height="50" relative="1" as="geometry">
            <mxPoint x="250" y="550" as="sourcePoint" />
            <mxPoint x="130" y="523" as="targetPoint" />
          </mxGeometry>
        </mxCell>
        <mxCell id="mXM1S3KKqSCKH9ftRv-s-72" value="" style="endArrow=none;html=1;rounded=0;entryX=1;entryY=0.5;entryDx=0;entryDy=0;" edge="1" parent="1" source="mXM1S3KKqSCKH9ftRv-s-11" target="mXM1S3KKqSCKH9ftRv-s-68">
          <mxGeometry width="50" height="50" relative="1" as="geometry">
            <mxPoint x="170" y="630" as="sourcePoint" />
            <mxPoint x="87" y="530" as="targetPoint" />
          </mxGeometry>
        </mxCell>
        <mxCell id="mXM1S3KKqSCKH9ftRv-s-75" value="ThoiGianDK" style="ellipse;whiteSpace=wrap;html=1;" vertex="1" parent="1">
          <mxGeometry x="260" y="480" width="80" height="40" as="geometry" />
        </mxCell>
        <mxCell id="mXM1S3KKqSCKH9ftRv-s-76" value="ThoiGianDK" style="ellipse;whiteSpace=wrap;html=1;" vertex="1" parent="1">
          <mxGeometry x="180" y="680" width="80" height="40" as="geometry" />
        </mxCell>
        <mxCell id="mXM1S3KKqSCKH9ftRv-s-77" value="" style="endArrow=none;html=1;rounded=0;" edge="1" parent="1" source="mXM1S3KKqSCKH9ftRv-s-67" target="mXM1S3KKqSCKH9ftRv-s-75">
          <mxGeometry width="50" height="50" relative="1" as="geometry">
            <mxPoint x="130" y="490" as="sourcePoint" />
            <mxPoint x="277" y="441" as="targetPoint" />
          </mxGeometry>
        </mxCell>
        <mxCell id="mXM1S3KKqSCKH9ftRv-s-78" value="" style="endArrow=none;html=1;rounded=0;" edge="1" parent="1" source="mXM1S3KKqSCKH9ftRv-s-76" target="mXM1S3KKqSCKH9ftRv-s-68">
          <mxGeometry width="50" height="50" relative="1" as="geometry">
            <mxPoint x="310" y="530" as="sourcePoint" />
            <mxPoint x="310" y="510" as="targetPoint" />
          </mxGeometry>
        </mxCell>
        <mxCell id="mXM1S3KKqSCKH9ftRv-s-80" value="NhapHo" style="rhombus;whiteSpace=wrap;html=1;" vertex="1" parent="1">
          <mxGeometry x="-80" y="740" width="120" height="40" as="geometry" />
        </mxCell>
        <mxCell id="mXM1S3KKqSCKH9ftRv-s-81" value="" style="endArrow=none;html=1;rounded=0;exitX=0.5;exitY=0;exitDx=0;exitDy=0;" edge="1" parent="1" source="mXM1S3KKqSCKH9ftRv-s-80" target="mXM1S3KKqSCKH9ftRv-s-28">
          <mxGeometry width="50" height="50" relative="1" as="geometry">
            <mxPoint x="170" y="650" as="sourcePoint" />
            <mxPoint x="84" y="530" as="targetPoint" />
          </mxGeometry>
        </mxCell>
        <mxCell id="mXM1S3KKqSCKH9ftRv-s-82" value="" style="endArrow=none;html=1;rounded=0;exitX=0.5;exitY=1;exitDx=0;exitDy=0;" edge="1" parent="1" source="mXM1S3KKqSCKH9ftRv-s-80" target="mXM1S3KKqSCKH9ftRv-s-31">
          <mxGeometry width="50" height="50" relative="1" as="geometry">
            <mxPoint x="10" y="730" as="sourcePoint" />
            <mxPoint x="65" y="530" as="targetPoint" />
          </mxGeometry>
        </mxCell>
        <mxCell id="mXM1S3KKqSCKH9ftRv-s-83" value="XuatHo" style="rhombus;whiteSpace=wrap;html=1;" vertex="1" parent="1">
          <mxGeometry x="80" y="740" width="120" height="40" as="geometry" />
        </mxCell>
        <mxCell id="mXM1S3KKqSCKH9ftRv-s-84" value="" style="endArrow=none;html=1;rounded=0;exitX=0.5;exitY=1;exitDx=0;exitDy=0;" edge="1" parent="1" source="mXM1S3KKqSCKH9ftRv-s-83" target="mXM1S3KKqSCKH9ftRv-s-31">
          <mxGeometry width="50" height="50" relative="1" as="geometry">
            <mxPoint x="-10" y="790" as="sourcePoint" />
            <mxPoint x="50" y="850" as="targetPoint" />
          </mxGeometry>
        </mxCell>
        <mxCell id="mXM1S3KKqSCKH9ftRv-s-85" value="" style="endArrow=none;html=1;rounded=0;entryX=0.5;entryY=0;entryDx=0;entryDy=0;" edge="1" parent="1" source="mXM1S3KKqSCKH9ftRv-s-28" target="mXM1S3KKqSCKH9ftRv-s-83">
          <mxGeometry width="50" height="50" relative="1" as="geometry">
            <mxPoint x="150" y="790" as="sourcePoint" />
            <mxPoint x="90" y="850" as="targetPoint" />
          </mxGeometry>
        </mxCell>
        <mxCell id="mXM1S3KKqSCKH9ftRv-s-86" value="" style="endArrow=none;html=1;rounded=0;exitX=0;exitY=0.5;exitDx=0;exitDy=0;" edge="1" parent="1" source="mXM1S3KKqSCKH9ftRv-s-80" target="mXM1S3KKqSCKH9ftRv-s-87">
          <mxGeometry width="50" height="50" relative="1" as="geometry">
            <mxPoint x="77" y="530" as="sourcePoint" />
            <mxPoint x="-120" y="760" as="targetPoint" />
          </mxGeometry>
        </mxCell>
        <mxCell id="mXM1S3KKqSCKH9ftRv-s-87" value="QuanHeVoiChuHo" style="ellipse;whiteSpace=wrap;html=1;" vertex="1" parent="1">
          <mxGeometry x="-220" y="740" width="120" height="40" as="geometry" />
        </mxCell>
        <mxCell id="mXM1S3KKqSCKH9ftRv-s-88" value="" style="endArrow=none;html=1;rounded=0;entryX=1;entryY=0.5;entryDx=0;entryDy=0;" edge="1" parent="1" source="mXM1S3KKqSCKH9ftRv-s-28" target="mXM1S3KKqSCKH9ftRv-s-89">
          <mxGeometry width="50" height="50" relative="1" as="geometry">
            <mxPoint x="-337" y="650" as="sourcePoint" />
            <mxPoint x="-120" y="590" as="targetPoint" />
          </mxGeometry>
        </mxCell>
        <mxCell id="mXM1S3KKqSCKH9ftRv-s-89" value="Lam" style="rhombus;whiteSpace=wrap;html=1;" vertex="1" parent="1">
          <mxGeometry x="-200" y="580" width="120" height="40" as="geometry" />
        </mxCell>
        <mxCell id="mXM1S3KKqSCKH9ftRv-s-90" value="" style="endArrow=none;html=1;rounded=0;exitX=0;exitY=0.5;exitDx=0;exitDy=0;" edge="1" parent="1" source="mXM1S3KKqSCKH9ftRv-s-89" target="mXM1S3KKqSCKH9ftRv-s-1">
          <mxGeometry width="50" height="50" relative="1" as="geometry">
            <mxPoint x="42" y="530" as="sourcePoint" />
            <mxPoint x="-70" y="610" as="targetPoint" />
          </mxGeometry>
        </mxCell>
      </root>
    </mxGraphModel>
  </diagram>
</mxfile>
